<svg width="130" height="130" viewBox="0 0 130 130" fill="none" xmlns="http://www.w3.org/2000/svg">
<path d="M115.104 49.5626C102.592 29.9001 84.2833 18.5792 65 18.5792C55.3583 18.5792 45.9875 21.3959 37.4292 26.6501C28.8708 31.9584 21.1792 39.7042 14.8958 49.5626C9.47917 58.0667 9.47917 71.8792 14.8958 80.3834C27.4083 100.1 45.7167 111.367 65 111.367C74.6417 111.367 84.0125 108.55 92.5708 103.296C101.129 97.9876 108.821 90.2417 115.104 80.3834C120.521 71.9334 120.521 58.0667 115.104 49.5626V49.5626ZM65 86.8834C52.8667 86.8834 43.1167 77.0792 43.1167 65.0001C43.1167 52.9209 52.8667 43.1167 65 43.1167C77.1333 43.1167 86.8833 52.9209 86.8833 65.0001C86.8833 77.0792 77.1333 86.8834 65 86.8834Z" fill="black"/>
<path d="M64.9892 49.5083C60.8877 49.5083 56.9542 51.1376 54.0541 54.0378C51.1539 56.9379 49.5246 60.8714 49.5246 64.9729C49.5246 69.0743 51.1539 73.0078 54.0541 75.908C56.9542 78.8082 60.8877 80.4375 64.9892 80.4375C73.4933 80.4375 80.4808 73.5041 80.4808 65C80.4808 56.4958 73.4933 49.5083 64.9892 49.5083Z" fill="black"/>
</svg>
