<svg width="130" height="130" viewBox="0 0 130 130" fill="none" xmlns="http://www.w3.org/2000/svg">
<path d="M101.833 53.6792C95.7125 53.6792 90.2417 56.6584 86.8292 61.2084C85.084 58.8752 82.8197 56.9801 80.2155 55.6733C77.6113 54.3665 74.7387 53.6838 71.825 53.6792C61.4792 53.6792 53.0833 62.1292 53.0833 72.5292C53.0833 76.5375 53.7333 80.275 54.8167 83.6875C60.125 100.533 76.5917 110.663 84.7167 113.425C85.8542 113.804 87.75 113.804 88.8875 113.425C97.0125 110.663 113.479 100.588 118.788 83.6875C119.925 80.2209 120.521 76.5375 120.521 72.5292C120.537 70.0629 120.066 67.6176 119.135 65.3338C118.204 63.05 116.83 60.9727 115.094 59.2212C113.357 57.4696 111.292 56.0784 109.016 55.1273C106.741 54.1763 104.3 53.6841 101.833 53.6792Z" fill="black"/>
<path d="M112.396 45.1858C112.396 46.4317 111.15 47.2442 109.958 46.9192C106.314 46.005 102.515 45.8899 98.8218 46.5818C95.1287 47.2736 91.6289 48.7561 88.5625 50.9275C87.3708 51.7942 85.7458 51.7942 84.6083 50.9275C80.2729 47.7487 75.0342 46.0404 69.6583 46.0525C55.6833 46.0525 44.3083 57.4817 44.3083 71.565C44.3083 86.84 51.6208 98.2692 58.9875 105.907C59.3667 106.286 59.0417 106.936 58.5542 106.719C43.7667 101.682 10.8333 80.7733 10.8333 45.1858C10.8333 29.4775 23.4542 16.8025 39.0542 16.8025C48.3167 16.8025 56.4958 21.2442 61.6417 28.1233C64.2704 24.6135 67.6797 21.7634 71.6 19.7985C75.5203 17.8337 79.844 16.808 84.2292 16.8025C99.775 16.8025 112.396 29.4775 112.396 45.1858Z" fill="black"/>
</svg>
