<svg width="130" height="130" viewBox="0 0 130 130" fill="none" xmlns="http://www.w3.org/2000/svg">
<path d="M87.6959 10.8334H42.3042C22.5875 10.8334 10.8333 22.5875 10.8333 42.3042V87.6417C10.8333 107.413 22.5875 119.167 42.3042 119.167H87.6417C107.358 119.167 119.113 107.413 119.113 87.6959V42.3042C119.167 22.5875 107.413 10.8334 87.6959 10.8334ZM46.8 69.3875L70.525 45.6625H57.3625C55.1417 45.6625 53.3 43.8209 53.3 41.6C53.3 39.3792 55.1417 37.5375 57.3625 37.5375H80.3292C80.8708 37.5375 81.3583 37.6459 81.9 37.8625C82.875 38.2959 83.6875 39.0542 84.1208 40.0834C84.3375 40.5709 84.4458 41.1125 84.4458 41.6542V64.6209C84.4458 66.8417 82.6042 68.6834 80.3833 68.6834C78.1625 68.6834 76.3208 66.8417 76.3208 64.6209V51.4584L52.5417 75.1292C51.7292 75.9417 50.7 76.3209 49.6708 76.3209C48.6417 76.3209 47.6125 75.9417 46.8 75.1292C46.0445 74.3647 45.6208 73.3332 45.6208 72.2584C45.6208 71.1835 46.0445 70.152 46.8 69.3875V69.3875ZM98.8 93.275C87.9125 96.9042 76.4833 98.7459 65 98.7459C53.5167 98.7459 42.0875 96.9042 31.2 93.275C30.1831 92.926 29.3452 92.1895 28.8684 91.2259C28.3917 90.2622 28.3147 89.1493 28.6542 88.1292C29.3583 86.0167 31.6333 84.825 33.8 85.5834C53.95 92.3 76.1042 92.3 96.2542 85.5834C98.3667 84.8792 100.696 86.0167 101.4 88.1292C102.05 90.2959 100.913 92.5709 98.8 93.275Z" fill="black"/>
</svg>
